<svg xmlns="http://www.w3.org/2000/svg" xmlns:xlink="http://www.w3.org/1999/xlink" width="294.799" height="99.55" viewBox="0 0 294.799 99.55"><defs><style>.a{fill:#e6e6e6;}.b{fill:#fff;}.c{fill:#ea212e;}.d{fill:url(#a);}.e{fill:#333;}</style><linearGradient id="a" x1="0.088" y1="4.432" x2="0.902" y2="3.814" gradientUnits="objectBoundingBox"><stop offset="0" stop-color="#f1f1f2" stop-opacity="0.2"/><stop offset="1" stop-color="#f1f1f2" stop-opacity="0"/></linearGradient></defs><g transform="translate(-3325 -665)"><path class="a" d="M86.1,26.4a2.776,2.776,0,0,0-2-2.3l-38.3-13a3.745,3.745,0,0,0-2.1,0L5.3,24.1a2.8,2.8,0,0,0-2,2.3C.6,52.5,5,72.3,16.8,85.5,28.9,98.7,44,99.8,44.7,99.8h.4A43.474,43.474,0,0,0,72.9,85.5C84.6,72.3,89,52.4,86.1,26.4Z" transform="translate(3323.099 664.75)"/><path class="b" d="M87.2,17.1a2.908,2.908,0,0,0-2-2.5L46.1.4A3.745,3.745,0,0,0,44,.4L4.8,14.6a2.936,2.936,0,0,0-2,2.5c-3,28.5,1.5,50,13.6,64.2C28.7,95.8,44.1,97,44.8,97h.4c.6,0,16.1-1.1,28.4-15.6,12-14.3,16.6-36,13.6-64.3Z" transform="translate(3323.099 664.75)"/><path class="c" d="M82.2,20.2A2.627,2.627,0,0,0,80.5,18L45.6,5.4a2.775,2.775,0,0,0-1.8,0L9,18a2.627,2.627,0,0,0-1.7,2.2c-2.7,25.3,1.3,44.4,12,57.1C30.2,90.2,44,91.2,44.5,91.2h.4c.5,0,14.3-1,25.2-13.8,10.7-12.8,14.7-32,12.1-57.2ZM31.2,82c-.5-.3-.8-.5-1.3-.8,9.3-2,16.9-5.9,23.8-10.1A85.659,85.659,0,0,1,31.2,82ZM75.9,39.3a40.3,40.3,0,0,1-4.5,7.5A57.536,57.536,0,0,1,58.8,58.3a91.068,91.068,0,0,1-15.6,8.8A52.065,52.065,0,0,1,34,70.3c-3.1.8-7.1,1.6-10.7.8a9.612,9.612,0,0,1-3.6-1.3,39.861,39.861,0,0,1-3.1-6.2c.1-2.7,1.5-5.1,2.7-7.1A34.86,34.86,0,0,1,31.9,45c5.1-3.1,11-5.7,19-5.6a33.64,33.64,0,0,0-14.9,6c-3.7,2.6-8,6.4-9.2,11.4-.8,3.5.8,5.7,3.2,6.7s6.1.9,9.1.5a37.586,37.586,0,0,0,15.3-5.7A42.928,42.928,0,0,0,70,42.8a25.718,25.718,0,0,0,2.8-7.3C74,28.3,70.3,24.4,65.1,23S52.2,22.7,47,24.4A70.926,70.926,0,0,0,20.6,39.7a76.866,76.866,0,0,0-7.9,8.2c-.2-1.4-.4-2.7-.5-4.1a70.994,70.994,0,0,1,7.1-6.3A75.351,75.351,0,0,1,36.2,27,67.03,67.03,0,0,1,58,21l3.5-.1C69,21,75.2,23.1,77,29.4c1,3.4,0,7.1-1.1,9.9Zm-22.7.8a33.788,33.788,0,0,0,4.5,0,8.084,8.084,0,0,0,1.5.1c.5-.1,1.1-.8,1.6-1.1,1.5-1.2,3-2.6,4.4-3.7-.5,1.5-1.5,3.1-2.2,4.8,2,.1,4.2.1,6.4.2-2.5,1.1-5.1,2-7.8,2.9-.8,1.7-1.6,3.5-2.5,5.2-.9-1-1.6-2.3-2.5-3.3L49.1,48c2.1-1.6,4.1-3.2,6.2-4.9C54.7,42.2,53.9,41.1,53.2,40.1Z" transform="translate(3323.099 664.75)"/><path class="d" d="M79.4,19.6a2.389,2.389,0,0,0-1.6-2.1L45.8,5.6a2.208,2.208,0,0,0-1.6,0l-32,11.9a2.468,2.468,0,0,0-1.6,2.1c-2.4,23.9,1.3,42,11.2,53.9C31.8,85.7,44.4,86.6,45,86.6h.4c.5,0,13.2-.9,23.2-13.1,9.5-11.9,13.3-30,10.8-53.9Z" transform="translate(3323.099 664.75)"/><path class="e" d="M101.7,51.3c.1,2.7,2.2,3.9,4.7,3.9a10.242,10.242,0,0,0,4.2-.7l.6,2.6a14.9,14.9,0,0,1-5.3.9c-4.9,0-7.8-3-7.8-7.6,0-4.2,2.5-8.1,7.4-8.1s6.5,4,6.5,7.4c0,.7-.1,1.3-.1,1.6H101.7Zm6.7-2.7c0-1.4-.6-3.7-3.1-3.7-2.4,0-3.4,2.1-3.5,3.7Zm14.3-.4v2.6h-7.9V48.2Zm3.2-11.1a36.665,36.665,0,0,1,6.1-.4c3.9,0,6.6.8,8.5,2.4,2,1.6,3.3,4.1,3.3,7.7a10.8,10.8,0,0,1-3.3,8.3C138.4,57,135.1,58,131,58a35.419,35.419,0,0,1-5.2-.3l.1-20.6Zm3.8,17.8a12.786,12.786,0,0,0,2.1.1c5,0,7.9-2.7,7.9-8,0-4.6-2.6-7.3-7.4-7.3a14.225,14.225,0,0,0-2.6.2Zm19.9-3.6c.1,2.7,2.2,3.9,4.7,3.9a10.242,10.242,0,0,0,4.2-.7l.6,2.6a14.9,14.9,0,0,1-5.3.9c-4.9,0-7.8-3-7.8-7.6,0-4.2,2.5-8.1,7.4-8.1s6.5,4,6.5,7.4c0,.7-.1,1.3-.1,1.6H149.6Zm6.6-2.7c0-1.4-.6-3.7-3.1-3.7-2.4,0-3.4,2.1-3.5,3.7Zm9-5.9,2.5,7.7c.4,1.3.7,2.5,1,3.8h.1c.3-1.2.6-2.4,1-3.8l2.4-7.7h4l-5.8,15.1h-3.8L161,42.7h4.2Zm13.4-7h3.8v22h-3.8Zm10.6,15.6c.1,2.7,2.2,3.9,4.7,3.9a10.242,10.242,0,0,0,4.2-.7l.6,2.6a14.9,14.9,0,0,1-5.3.9c-4.9,0-7.8-3-7.8-7.6,0-4.2,2.5-8.1,7.4-8.1s6.5,4,6.5,7.4c0,.7-.1,1.3-.1,1.6H189.2Zm6.7-2.7c0-1.4-.6-3.7-3.1-3.7-2.4,0-3.4,2.1-3.5,3.7Zm11-10.3v4.3h3.6v2.9h-3.6v6.7c0,1.8.5,2.8,2,2.8a5.418,5.418,0,0,0,1.5-.2l.1,2.9a9.271,9.271,0,0,1-2.8.4,4.716,4.716,0,0,1-3.3-1.2,6.022,6.022,0,0,1-1.2-4.2V45.6H201V42.7h2.2V39.3ZM220,36.9h3.8v9.6h.1c.5-.8,1-1.6,1.5-2.3l5.5-7.4h4.7l-7.2,8.9,7.7,12h-4.5l-5.9-9.6-1.9,2.2v7.4H220V36.9Zm26.6,20.9-.2-1.7h-.1a5.5,5.5,0,0,1-4.5,2,4.467,4.467,0,0,1-4.7-4.5c0-3.8,3.4-5.7,9-5.7v-.2c0-1-.4-2.6-3.1-2.6a8.906,8.906,0,0,0-4.1,1.1l-.7-2.5a10.82,10.82,0,0,1,5.5-1.3c4.8,0,6.2,3.1,6.2,6.4v5.5a33.634,33.634,0,0,0,.2,3.6l-3.5-.1Zm-.5-7.4c-2.7-.1-5.3.5-5.3,2.8a2.045,2.045,0,0,0,2.2,2.2,3.2,3.2,0,0,0,3-2.1,2.485,2.485,0,0,0,.1-.8V50.4Zm7.8-2.7c0-2-.1-3.6-.1-5h3.4l.2,2.3h.1a5.931,5.931,0,0,1,5.2-2.7c3.5,0,6.4,3,6.4,7.7,0,5.5-3.4,8.1-6.9,8.1a5.1,5.1,0,0,1-4.3-2h-.1v7.8H254V47.7h-.1Zm3.8,3.7a4.1,4.1,0,0,0,.1,1.1,3.435,3.435,0,0,0,3.4,2.7c2.4,0,3.8-2,3.8-5,0-2.7-1.3-4.8-3.8-4.8a3.5,3.5,0,0,0-3.4,2.8,3.553,3.553,0,0,0-.2,1v2.2Zm14.4,6.4V42.7h3.8V57.8h-3.8Zm7.7-3.5a8.952,8.952,0,0,0,3.9,1.1c1.7,0,2.4-.7,2.4-1.7s-.6-1.6-2.5-2.2c-2.9-1-4.2-2.6-4.2-4.4,0-2.7,2.2-4.7,5.7-4.7a8.447,8.447,0,0,1,4,.9l-.7,2.7a6.757,6.757,0,0,0-3.2-.9c-1.4,0-2.1.7-2.1,1.6,0,1,.7,1.4,2.6,2.1,2.7,1,4,2.4,4,4.6,0,2.7-2.1,4.7-6.1,4.7A8.94,8.94,0,0,1,279,57l.8-2.7Zm13.1,3.5V42.7h3.8V57.8h-3.8Z" transform="translate(3323.099 664.75)"/></g></svg>